<svg xmlns="http://www.w3.org/2000/svg" width="20.748" height="22.325" viewBox="0 0 20.748 22.325"><defs><style>.a{fill:#fa382f;}</style></defs><path class="a" d="M10.194,20.786a1.015,1.015,0,0,0-1.2-1c-1.328.244-3,.28-3.451-.972a5.79,5.79,0,0,0-1.864-2.45,1.218,1.218,0,0,1-.169-.111,1.014,1.014,0,0,0-.944-.655h0a1.014,1.014,0,0,0-1.014,1.01c0,.827.823,1.357,1.158,1.537a4.505,4.505,0,0,1,.937,1.379c.37,1.038,1.443,2.614,4.531,2.41,0,.036,0,.069,0,.1l0,.271a1.014,1.014,0,1,0,2.029,0l0-.323C10.2,21.792,10.194,21.514,10.194,20.786ZM21.015,5.44c.032-.127.064-.267.092-.426a6.369,6.369,0,0,0-.414-3.341,1.017,1.017,0,0,0-.625-.588c-.361-.122-1.695-.362-4.245,1.268a14.07,14.07,0,0,0-6.446,0C6.838.747,5.511.965,5.154,1.08a1.012,1.012,0,0,0-.641.592A6.392,6.392,0,0,0,4.1,5.078c.025.13.052.25.079.36A6.36,6.36,0,0,0,2.91,9.322a8.544,8.544,0,0,0,.043.935c.339,4.669,3.382,6.071,5.5,6.553-.044.127-.084.263-.12.406a1.015,1.015,0,1,0,1.971.485,1.7,1.7,0,0,1,.475-.891,1.014,1.014,0,0,0-.554-1.77c-3.5-.4-5.025-1.828-5.254-4.969a6.706,6.706,0,0,1-.034-.749A4.319,4.319,0,0,1,5.871,6.57a3.066,3.066,0,0,1,.2-.235A1.014,1.014,0,0,0,6.261,5.3,3.437,3.437,0,0,1,6.1,4.732a4.153,4.153,0,0,1,.08-1.639,7.652,7.652,0,0,1,2.45,1.2,1.023,1.023,0,0,0,.84.135,11.948,11.948,0,0,1,6.262,0,1.02,1.02,0,0,0,.843-.14,7.682,7.682,0,0,1,2.44-1.208,4.1,4.1,0,0,1,.089,1.6,3.251,3.251,0,0,1-.171.616,1.014,1.014,0,0,0,.191,1.039c.078.088.157.183.227.272a4.182,4.182,0,0,1,.915,2.715,7.141,7.141,0,0,1-.038.789c-.223,3.1-1.751,4.529-5.271,4.93a1.014,1.014,0,0,0-.553,1.771,1.654,1.654,0,0,1,.473.921,3.105,3.105,0,0,1,.094.831v2.368c-.01.657-.01,1.149-.01,1.375a1.014,1.014,0,0,0,2.029,0c0-.22,0-.7.01-1.359V18.564a4.952,4.952,0,0,0-.157-1.331,4.317,4.317,0,0,0-.118-.422,6.607,6.607,0,0,0,5.524-6.517,8.823,8.823,0,0,0,.047-.973A6.219,6.219,0,0,0,21.015,5.44Z" transform="translate(-1.549 -0.997)"/></svg>